<?xml version="1.0" encoding="UTF-8"?>
<svg width="700pt" height="700pt" version="1.1" viewBox="0 0 700 700" xmlns="http://www.w3.org/2000/svg">
 <g fill-rule="evenodd">
  <path d="m397.62 183.07c5.332 7.0664-0.94141 14.07-6.0234 14.07h-3.7305c7.0664 8.9375 14.211 18.133 22.117 28.609 6.5859 8.7305-1.1641 17.383-7.4414 17.383h-4.418c10.91 13.73 21.773 27.645 34 43.836 8.8359 11.707-1.5625 23.312-9.9805 23.312h-3.5c9.668 12.297 19.547 25.074 30.309 39.328 10.543 13.969-1.8633 27.816-11.91 27.816h-5.8711c10.477 13.355 21.207 27.25 32.836 42.656 12.07 15.996-2.1328 31.852-13.637 31.852h-90.105v31.117h-30.355v-31.117h-87.539c-11.492 0-32.445-10.273-12.594-33.418 12.57-14.652 23.633-28.027 34.117-41.09h-8.5195c-10.039 0-28.34-8.9727-11-29.184 11.645-13.57 21.809-25.891 31.461-37.961h-5.9297c-8.4141 0-23.746-7.5195-9.2188-24.457 13.27-15.469 24.242-28.992 34.973-42.691h-6.6328c-6.2734 0-17.707-5.6055-6.8711-18.234 8.5781-10 15.867-18.906 22.871-27.754h-5.3203c-5.0781 0-14.336-4.5391-5.5625-14.762 16.832-19.617 27.543-34.059 43.613-55.176 3.7188-4.8867 11.961-4.7969 15.793 0 16.406 20.523 28.391 35.086 44.078 55.867zm-67.008-12.301c5.207 0 9.4297 4.2227 9.4297 9.4297s-4.2227 9.4297-9.4297 9.4297-9.4297-4.2227-9.4297-9.4297 4.2227-9.4297 9.4297-9.4297zm51.512 92.902c5.207 0 9.4297 4.2227 9.4297 9.4297s-4.2227 9.4297-9.4297 9.4297-9.4297-4.2227-9.4297-9.4297 4.2227-9.4297 9.4297-9.4297zm8.2812 65.77c5.207 0 9.4297 4.2227 9.4297 9.4297s-4.2227 9.4297-9.4297 9.4297-9.4297-4.2227-9.4297-9.4297 4.2227-9.4297 9.4297-9.4297zm-91.523 3.6797c5.207 0 9.4297 4.2227 9.4297 9.4297 0 5.207-4.2227 9.4297-9.4297 9.4297-5.207 0-9.4297-4.2227-9.4297-9.4297 0-5.207 4.2227-9.4297 9.4297-9.4297zm0 73.586c5.207 0 9.4297 4.2227 9.4297 9.4297s-4.2227 9.4297-9.4297 9.4297c-5.207 0-9.4297-4.2227-9.4297-9.4297s4.2227-9.4297 9.4297-9.4297zm101.87-26.676c11.176 0 20.238 9.0625 20.238 20.238 0 11.176-9.0625 20.234-20.238 20.234-11.176 0-20.234-9.0625-20.234-20.234 0-11.176 9.0625-20.238 20.234-20.238zm-65.309-102.1c11.176 0 20.238 9.0625 20.238 20.238s-9.0625 20.234-20.238 20.234c-11.176 0-20.234-9.0625-20.234-20.234 0-11.176 9.0625-20.238 20.234-20.238zm22.996-84.164c11.176 0 20.238 9.0625 20.238 20.238 0 11.176-9.0625 20.234-20.238 20.234-11.176 0-20.234-9.0625-20.234-20.234 0-11.176 9.0625-20.238 20.234-20.238zm-12.426 168.79 4.5234 14.012 14.723-0.03125-11.93 8.6328 4.5781 13.992-11.895-8.6758-11.895 8.6758 4.5781-13.992-11.93-8.6328 14.723 0.03125zm-27.055-128.32 3.5859 11.105 11.672-0.023437-9.457 6.8398 3.6289 11.094-9.4297-6.8789-9.4258 6.8789 3.625-11.094-9.4531-6.8398 11.672 0.023437z"/>
  <path d="m256.78 234.89c4.2148 5.5859-0.74609 11.125-4.7617 11.125h-2.9492c4.5703 5.7852 9.1875 11.703 14.137 18.203-3.4219 5.1484-6.8945 10.473-10.449 16.02-13.352 20.859-5.0117 30.531 4.75 33.711-6.625 9.582-13.359 19.695-20.391 30.676-15.969 24.945-0.91016 33.895 10.5 34.863-9.0977 12.754-18.25 26.289-27.977 41.484-14.645 22.871-3.1953 32.297 7.6055 34.453v16.598h-23.992v-24.598h-69.199c-9.0859 0-25.648-8.1211-9.957-26.418 9.9375-11.582 18.68-22.152 26.969-32.48h-6.7344c-7.9375 0-22.402-7.0938-8.6953-23.07 9.2031-10.727 17.238-20.465 24.867-30.008h-4.6875c-6.6484 0-18.773-5.9453-7.2852-19.332 10.488-12.227 19.164-22.918 27.645-33.746h-5.2422c-4.957 0-13.996-4.4297-5.4336-14.414 6.7773-7.9023 12.543-14.945 18.078-21.941h-4.207c-4.0156 0-11.332-3.5859-4.3984-11.668 13.305-15.508 21.773-26.922 34.477-43.613 2.9375-3.8633 9.4531-3.7891 12.48 0 12.969 16.227 22.441 27.734 34.84 44.16z"/>
  <path d="m443.21 234.89c-4.2148 5.5859 0.74609 11.125 4.7617 11.125h2.9492c-4.5703 5.7852-9.1875 11.703-14.137 18.203 3.4219 5.1484 6.8945 10.473 10.449 16.02 13.352 20.859 5.0117 30.531-4.75 33.711 6.625 9.582 13.359 19.695 20.391 30.676 15.969 24.945 0.91016 33.895-10.5 34.863 9.0977 12.754 18.25 26.289 27.977 41.484 14.645 22.871 3.1953 32.297-7.6055 34.453v16.598h23.992v-24.598h69.199c9.0859 0 25.648-8.1211 9.957-26.418-9.9375-11.582-18.68-22.152-26.969-32.48h6.7344c7.9375 0 22.402-7.0938 8.6953-23.07-9.2031-10.727-17.238-20.465-24.867-30.008h4.6875c6.6484 0 18.773-5.9453 7.2852-19.332-10.488-12.227-19.164-22.918-27.645-33.746h5.2422c4.957 0 13.996-4.4297 5.4336-14.414-6.7773-7.9023-12.543-14.945-18.078-21.941h4.207c4.0156 0 11.332-3.5859 4.3984-11.668-13.305-15.508-21.773-26.922-34.477-43.613-2.9375-3.8633-9.4531-3.7891-12.48 0-12.969 16.227-22.441 27.734-34.84 44.16z"/>
  <path d="m350.76 95.211 19.191-0.027344-15.547 11.238 5.9648 18.23-15.488-11.305-15.508 11.305 5.9648-18.23-15.531-11.238 19.176 0.027344 5.8984-18.242z"/>
 </g>
</svg>
