<?xml version="1.0" encoding="UTF-8"?>
<svg id="Livello_2" data-name="Livello 2" xmlns="http://www.w3.org/2000/svg" viewBox="0 0 234.77 236.16">
  <defs>
    <style>
      .cls-1 {
        opacity: .97;
      }

      .cls-2 {
        fill: #faf8f8;
        fill-rule: evenodd;
      }
    </style>
  </defs>
  <g id="Livello_2-2" data-name="Livello 2">
    <g id="Livello_1-2" data-name="Livello 1-2">
      <g class="cls-1">
        <path class="cls-2" d="M139.02,43.49c2.19,2.9-.39,5.77-2.47,5.77h-1.53c2.9,3.66,5.83,7.43,9.07,11.73,2.7,3.58-.48,7.13-3.05,7.13h-1.81c4.47,5.63,8.92,11.33,13.94,17.97,3.62,4.8-.64,9.56-4.09,9.56h-1.43c3.96,5.04,8.01,10.28,12.42,16.12,4.32,5.73-.76,11.4-4.88,11.4h-2.41c4.29,5.47,8.69,11.17,13.46,17.48,4.95,6.56-.87,13.06-5.59,13.06h-36.93v12.75h-12.44v-12.75h-35.88c-4.71,0-13.3-4.21-5.16-13.7,5.15-6.01,9.69-11.49,13.98-16.84h-3.49c-4.11,0-11.62-3.68-4.51-11.96,4.77-5.56,8.94-10.61,12.9-15.56h-2.43c-3.45,0-9.73-3.08-3.78-10.02,5.44-6.34,9.94-11.88,14.34-17.5h-2.72c-2.57,0-7.26-2.3-2.82-7.47,3.52-4.1,6.5-7.75,9.37-11.38h-2.18c-2.08,0-5.88-1.86-2.28-6.05,6.9-8.04,11.29-13.96,17.88-22.62,1.52-2,4.9-1.97,6.47,0,6.72,8.41,11.64,14.38,18.07,22.9h0l-.02-.02Zm-27.47-5.04c2.13,0,3.87,1.73,3.87,3.87s-1.73,3.87-3.87,3.87-3.87-1.73-3.87-3.87,1.73-3.87,3.87-3.87Zm21.11,38.08c2.13,0,3.87,1.73,3.87,3.87s-1.73,3.87-3.87,3.87-3.87-1.73-3.87-3.87,1.73-3.87,3.87-3.87Zm3.39,26.96c2.13,0,3.87,1.73,3.87,3.87s-1.73,3.87-3.87,3.87-3.87-1.73-3.87-3.87,1.73-3.87,3.87-3.87Zm-37.52,1.51c2.13,0,3.87,1.73,3.87,3.87s-1.73,3.87-3.87,3.87-3.87-1.73-3.87-3.87,1.73-3.87,3.87-3.87Zm0,30.16c2.13,0,3.87,1.73,3.87,3.87s-1.73,3.87-3.87,3.87-3.87-1.73-3.87-3.87,1.73-3.87,3.87-3.87Zm41.76-10.93c4.58,0,8.3,3.71,8.3,8.3s-3.71,8.29-8.3,8.29-8.29-3.71-8.29-8.29,3.71-8.3,8.29-8.3Zm-26.77-41.85c4.58,0,8.3,3.71,8.3,8.3s-3.71,8.29-8.3,8.29-8.29-3.71-8.29-8.29,3.71-8.3,8.29-8.3Zm9.43-34.5c4.58,0,8.3,3.71,8.3,8.3s-3.71,8.29-8.3,8.29-8.29-3.71-8.29-8.29,3.71-8.3,8.29-8.3Zm-5.09,69.19l1.85,5.74h6.03l-4.89,3.53,1.88,5.74-4.88-3.56-4.88,3.56,1.88-5.74-4.89-3.54h6.03l1.85-5.73h.02Zm-11.09-52.6l1.47,4.55h4.78l-3.88,2.79,1.49,4.55-3.87-2.82-3.86,2.82,1.49-4.55-3.87-2.8h4.78s1.47-4.54,1.47-4.54Z"/>
        <path class="cls-2" d="M81.29,64.73c1.73,2.29-.31,4.56-1.95,4.56h-1.21c1.87,2.37,3.77,4.8,5.79,7.46-1.4,2.11-2.83,4.29-4.28,6.57-5.47,8.55-2.05,12.51,1.95,13.82-2.72,3.93-5.48,8.07-8.36,12.57-6.55,10.22-.37,13.89,4.3,14.29-3.73,5.23-7.48,10.78-11.47,17-6,9.37-1.31,13.24,3.12,14.12v6.8h-9.83v-10.08H30.99c-3.72,0-10.51-3.33-4.08-10.83,4.07-4.75,7.66-9.08,11.05-13.31h-2.76c-3.25,0-9.18-2.91-3.56-9.46,3.77-4.4,7.07-8.39,10.19-12.3h-1.92c-2.73,0-7.7-2.44-2.99-7.92,4.3-5.01,7.86-9.39,11.33-13.83h-2.15c-2.03,0-5.74-1.82-2.23-5.91,2.78-3.24,5.14-6.13,7.41-8.99h-1.72c-1.65,0-4.64-1.47-1.8-4.78,5.45-6.36,8.92-11.04,14.13-17.88,1.2-1.58,3.87-1.55,5.12,0,5.32,6.65,9.2,11.37,14.28,18.1h0Z"/>
        <path class="cls-2" d="M157.71,64.73c-1.73,2.29,.31,4.56,1.95,4.56h1.21c-1.87,2.37-3.77,4.8-5.79,7.46,1.4,2.11,2.83,4.29,4.28,6.57,5.47,8.55,2.05,12.51-1.95,13.82,2.72,3.93,5.48,8.07,8.36,12.57,6.55,10.22,.37,13.89-4.3,14.29,3.73,5.23,7.48,10.78,11.47,17,6,9.37,1.31,13.24-3.12,14.12v6.8h9.83v-10.08h28.36c3.72,0,10.51-3.33,4.08-10.83-4.07-4.75-7.66-9.08-11.05-13.31h2.76c3.25,0,9.18-2.91,3.56-9.46-3.77-4.4-7.07-8.39-10.19-12.3h1.92c2.73,0,7.7-2.44,2.99-7.92-4.3-5.01-7.86-9.39-11.33-13.83h2.15c2.03,0,5.74-1.82,2.23-5.91-2.78-3.24-5.14-6.13-7.41-8.99h1.72c1.65,0,4.64-1.47,1.8-4.78-5.45-6.36-8.92-11.04-14.13-17.88-1.2-1.58-3.87-1.55-5.12,0-5.32,6.65-9.2,11.37-14.28,18.1h0Z"/>
        <path class="cls-2" d="M119.81,7.48h7.87l-6.37,4.6,2.44,7.47-6.35-4.63-6.36,4.63,2.44-7.47-6.37-4.61h7.86l2.42-7.47,2.41,7.48h0Z"/>
      </g>
    </g>
  </g>
</svg>