<?xml version="1.0" encoding="utf-8"?>
<!-- Generator: Adobe Illustrator 27.0.0, SVG Export Plug-In . SVG Version: 6.00 Build 0)  -->
<svg version="1.1" id="Livello_2_00000051384890946667204670000000010103107700085925_"
	 xmlns="http://www.w3.org/2000/svg" xmlns:xlink="http://www.w3.org/1999/xlink" x="0px" y="0px" viewBox="0 0 239 236.2"
	 style="enable-background:new 0 0 239 236.2;" xml:space="preserve">
<style type="text/css">
	.st0{opacity:0.97;}
	.st1{fill-rule:evenodd;clip-rule:evenodd;fill:#FAF8F8;}
	.st2{fill:#FAF8F8;}
	.st3{font-family:'SavoyeLetPlain';}
	.st4{font-size:50px;}
</style>
<g id="Livello_1-2">
	<g>
		<g class="st0">
			<path class="st1" d="M139,43.5c2.2,2.9-0.4,5.8-2.5,5.8H135c2.9,3.7,5.8,7.4,9.1,11.7c2.7,3.6-0.5,7.1-3.1,7.1h-1.8
				c4.5,5.6,8.9,11.3,13.9,18c3.6,4.8-0.6,9.6-4.1,9.6h-1.4c4,5,8,10.3,12.4,16.1c4.3,5.7-0.8,11.4-4.9,11.4h-2.4
				c4.3,5.5,8.7,11.2,13.5,17.5c4.9,6.6-0.9,13.1-5.6,13.1h-36.9v12.8h-12.4v-12.8H75.4c-4.7,0-13.3-4.2-5.2-13.7
				c5.2-6,9.7-11.5,14-16.8h-3.5c-4.1,0-11.6-3.7-4.5-12c4.8-5.6,8.9-10.6,12.9-15.6h-2.4c-3.4,0-9.7-3.1-3.8-10
				c5.4-6.3,9.9-11.9,14.3-17.5h-2.7c-2.6,0-7.3-2.3-2.8-7.5c3.5-4.1,6.5-7.8,9.4-11.4h-2.2c-2.1,0-5.9-1.9-2.3-6
				c6.9-8,11.3-14,17.9-22.6c1.5-2,4.9-2,6.5,0C127.7,29,132.6,35,139,43.5L139,43.5L139,43.5z M111.6,38.4c2.1,0,3.9,1.7,3.9,3.9
				s-1.7,3.9-3.9,3.9s-3.9-1.7-3.9-3.9S109.4,38.4,111.6,38.4z M132.7,76.5c2.1,0,3.9,1.7,3.9,3.9s-1.7,3.9-3.9,3.9
				s-3.9-1.7-3.9-3.9S130.5,76.5,132.7,76.5z M136.1,103.5c2.1,0,3.9,1.7,3.9,3.9s-1.7,3.9-3.9,3.9s-3.9-1.7-3.9-3.9
				S133.9,103.5,136.1,103.5z M98.5,105c2.1,0,3.9,1.7,3.9,3.9s-1.7,3.9-3.9,3.9s-3.9-1.7-3.9-3.9S96.4,105,98.5,105z M98.5,135.2
				c2.1,0,3.9,1.7,3.9,3.9s-1.7,3.9-3.9,3.9s-3.9-1.7-3.9-3.9S96.4,135.2,98.5,135.2z M140.3,124.2c4.6,0,8.3,3.7,8.3,8.3
				s-3.7,8.3-8.3,8.3s-8.3-3.7-8.3-8.3S135.7,124.2,140.3,124.2z M113.5,82.4c4.6,0,8.3,3.7,8.3,8.3s-3.7,8.3-8.3,8.3
				s-8.3-3.7-8.3-8.3S108.9,82.4,113.5,82.4z M122.9,47.9c4.6,0,8.3,3.7,8.3,8.3s-3.7,8.3-8.3,8.3s-8.3-3.7-8.3-8.3
				S118.4,47.9,122.9,47.9z M117.9,117.1l1.8,5.7h6l-4.9,3.5l1.9,5.7l-4.9-3.6l-4.9,3.6l1.9-5.7l-4.9-3.5h6L117.9,117.1L117.9,117.1
				z M106.8,64.5l1.5,4.6h4.8l-3.9,2.8l1.5,4.6l-3.9-2.8l-3.9,2.8l1.5-4.6l-3.9-2.8h4.8C105.3,69,106.8,64.5,106.8,64.5z"/>
			<path class="st1" d="M81.3,64.7c1.7,2.3-0.3,4.6-1.9,4.6h-1.2c1.9,2.4,3.8,4.8,5.8,7.5c-1.4,2.1-2.8,4.3-4.3,6.6
				c-5.5,8.6-2.1,12.5,1.9,13.8c-2.7,3.9-5.5,8.1-8.4,12.6c-6.6,10.2-0.4,13.9,4.3,14.3c-3.7,5.2-7.5,10.8-11.5,17
				c-6,9.4-1.3,13.2,3.1,14.1v6.8h-9.8v-10.1H31c-3.7,0-10.5-3.3-4.1-10.8c4.1-4.8,7.7-9.1,11-13.3h-2.8c-3.2,0-9.2-2.9-3.6-9.5
				c3.8-4.4,7.1-8.4,10.2-12.3h-1.9c-2.7,0-7.7-2.4-3-7.9c4.3-5,7.9-9.4,11.3-13.8h-2.2c-2,0-5.7-1.8-2.2-5.9c2.8-3.2,5.1-6.1,7.4-9
				h-1.7c-1.7,0-4.6-1.5-1.8-4.8c5.5-6.4,8.9-11,14.1-17.9c1.2-1.6,3.9-1.5,5.1,0C72.3,53.3,76.2,58,81.3,64.7L81.3,64.7z"/>
			<path class="st1" d="M157.7,64.7c-1.7,2.3,0.3,4.6,1.9,4.6h1.2c-1.9,2.4-3.8,4.8-5.8,7.5c1.4,2.1,2.8,4.3,4.3,6.6
				c5.5,8.6,2.1,12.5-1.9,13.8c2.7,3.9,5.5,8.1,8.4,12.6c6.6,10.2,0.4,13.9-4.3,14.3c3.7,5.2,7.5,10.8,11.5,17
				c6,9.4,1.3,13.2-3.1,14.1v6.8h9.8v-10.1H208c3.7,0,10.5-3.3,4.1-10.8c-4.1-4.8-7.7-9.1-11.1-13.3h2.8c3.2,0,9.2-2.9,3.6-9.5
				c-3.8-4.4-7.1-8.4-10.2-12.3h1.9c2.7,0,7.7-2.4,3-7.9c-4.3-5-7.9-9.4-11.3-13.8h2.1c2,0,5.7-1.8,2.2-5.9c-2.8-3.2-5.1-6.1-7.4-9
				h1.7c1.6,0,4.6-1.5,1.8-4.8c-5.4-6.4-8.9-11-14.1-17.9c-1.2-1.6-3.9-1.5-5.1,0C166.7,53.3,162.8,58,157.7,64.7L157.7,64.7z"/>
			<path class="st1" d="M119.8,7.5h7.9l-6.4,4.6l2.4,7.5l-6.3-4.6l-6.4,4.6l2.4-7.5l-6.4-4.6h7.9l2.4-7.5L119.8,7.5L119.8,7.5z"/>
		</g>
		<text transform="matrix(1 0 0 1 0 217.53)" class="st2 st3 st4">Christmas Dream</text>
	</g>
</g>
</svg>
