<?xml version="1.0" encoding="UTF-8"?>
<svg id="Livello_2" data-name="Livello 2" xmlns="http://www.w3.org/2000/svg" viewBox="0 0 329.62 257.78">
  <defs>
    <style>
      .cls-1 {
        fill: #bc1818;
      }

      .cls-2 {
        fill: #fff;
        fill-rule: evenodd;
      }

      .cls-3 {
        fill: #007f45;
        opacity: .97;
      }
    </style>
  </defs>
  <g id="Livello_1-2" data-name="Livello 1">
    <g>
      <ellipse class="cls-3" cx="166.81" cy="148.28" rx="139.09" ry="109.5"/>
      <g>
        <path class="cls-2" d="M187.77,98.12c2.35,3.11-.41,6.19-2.65,6.19h-1.64c3.11,3.93,6.25,7.98,9.73,12.59,2.9,3.84-.51,7.65-3.27,7.65h-1.94c4.8,6.04,9.58,12.16,14.96,19.29,3.89,5.15-.69,10.26-4.39,10.26h-1.54c4.25,5.41,8.6,11.03,13.34,17.31,4.64,6.15-.82,12.24-5.24,12.24h-2.58c4.61,5.88,9.33,11.99,14.45,18.77,5.31,7.04-.94,14.02-6,14.02h-39.65v13.69h-13.36v-13.69h-38.52c-5.06,0-14.28-4.52-5.54-14.7,5.53-6.45,10.4-12.33,15.01-18.08h-3.75c-4.42,0-12.47-3.95-4.84-12.84,5.12-5.97,9.6-11.39,13.84-16.7h-2.61c-3.7,0-10.45-3.31-4.06-10.76,5.84-6.81,10.67-12.76,15.39-18.79h-2.92c-2.76,0-7.79-2.47-3.02-8.02,3.77-4.4,6.98-8.32,10.06-12.21h-2.34c-2.23,0-6.31-2-2.45-6.5,7.41-8.63,12.12-14.99,19.19-24.28,1.64-2.15,5.26-2.11,6.95,0,7.22,9.03,12.49,15.44,19.4,24.58h0Zm-29.49-5.41c2.29,0,4.15,1.86,4.15,4.15s-1.86,4.15-4.15,4.15-4.15-1.86-4.15-4.15,1.86-4.15,4.15-4.15Zm22.67,40.88c2.29,0,4.15,1.86,4.15,4.15s-1.86,4.15-4.15,4.15-4.15-1.86-4.15-4.15,1.86-4.15,4.15-4.15Zm3.64,28.94c2.29,0,4.15,1.86,4.15,4.15s-1.86,4.15-4.15,4.15-4.15-1.86-4.15-4.15,1.86-4.15,4.15-4.15Zm-40.27,1.62c2.29,0,4.15,1.86,4.15,4.15s-1.86,4.15-4.15,4.15-4.15-1.86-4.15-4.15,1.86-4.15,4.15-4.15Zm0,32.38c2.29,0,4.15,1.86,4.15,4.15s-1.86,4.15-4.15,4.15-4.15-1.86-4.15-4.15,1.86-4.15,4.15-4.15Zm44.83-11.74c4.92,0,8.91,3.99,8.91,8.91s-3.99,8.9-8.91,8.9-8.9-3.99-8.9-8.9,3.99-8.91,8.9-8.91Zm-28.74-44.93c4.92,0,8.91,3.99,8.91,8.91s-3.99,8.9-8.91,8.9-8.9-3.99-8.9-8.9,3.99-8.91,8.9-8.91Zm10.12-37.03c4.92,0,8.91,3.99,8.91,8.91s-3.99,8.9-8.91,8.9-8.9-3.99-8.9-8.9,3.99-8.91,8.9-8.91Zm-5.47,74.27l1.99,6.17h6.48s-5.25,3.78-5.25,3.78l2.01,6.16-5.23-3.82-5.23,3.82,2.01-6.16-5.25-3.8h6.48s1.99-6.15,1.99-6.15Zm-11.9-56.46l1.58,4.89h5.14s-4.16,3-4.16,3l1.6,4.88-4.15-3.03-4.15,3.03,1.6-4.88-4.16-3.01h5.14s1.58-4.88,1.58-4.88Z"/>
        <path class="cls-2" d="M125.8,120.92c1.85,2.46-.33,4.9-2.1,4.9h-1.3c2.01,2.55,4.04,5.15,6.22,8.01-1.51,2.27-3.03,4.61-4.6,7.05-5.88,9.18-2.21,13.43,2.09,14.83-2.92,4.22-5.88,8.67-8.97,13.5-7.03,10.98-.4,14.91,4.62,15.34-4,5.61-8.03,11.57-12.31,18.25-6.44,10.06-1.41,14.21,3.35,15.16v7.3h-10.56v-10.82h-30.45c-4,0-11.29-3.57-4.38-11.62,4.37-5.1,8.22-9.75,11.87-14.29h-2.96c-3.49,0-9.86-3.12-3.83-10.15,4.05-4.72,7.59-9.01,10.94-13.2h-2.06c-2.93,0-8.26-2.62-3.21-8.51,4.61-5.38,8.43-10.08,12.16-14.85h-2.31c-2.18,0-6.16-1.95-2.39-6.34,2.98-3.48,5.52-6.58,7.95-9.65h-1.85c-1.77,0-4.99-1.58-1.94-5.13,5.85-6.82,9.58-11.85,15.17-19.19,1.29-1.7,4.16-1.67,5.49,0,5.71,7.14,9.87,12.2,15.33,19.43h0Z"/>
        <path class="cls-2" d="M207.83,120.92c-1.85,2.46,.33,4.9,2.1,4.9h1.3c-2.01,2.55-4.04,5.15-6.22,8.01,1.51,2.27,3.03,4.61,4.6,7.05,5.88,9.18,2.21,13.43-2.09,14.83,2.92,4.22,5.88,8.67,8.97,13.5,7.03,10.98,.4,14.91-4.62,15.34,4,5.61,8.03,11.57,12.31,18.25,6.44,10.06,1.41,14.21-3.35,15.16v7.3h10.56v-10.82h30.45c4,0,11.29-3.57,4.38-11.62-4.37-5.1-8.22-9.75-11.87-14.29h2.96c3.49,0,9.86-3.12,3.83-10.15-4.05-4.72-7.59-9.01-10.94-13.2h2.06c2.93,0,8.26-2.62,3.21-8.51-4.61-5.38-8.43-10.08-12.16-14.85h2.31c2.18,0,6.16-1.95,2.39-6.34-2.98-3.48-5.52-6.58-7.95-9.65h1.85c1.77,0,4.99-1.58,1.94-5.13-5.85-6.82-9.58-11.85-15.17-19.19-1.29-1.7-4.16-1.67-5.49,0-5.71,7.14-9.87,12.2-15.33,19.43h0Z"/>
        <path class="cls-2" d="M167.15,59.46h8.44s-6.84,4.93-6.84,4.93l2.62,8.02-6.82-4.97-6.82,4.97,2.62-8.02-6.83-4.94h8.44s2.6-8.01,2.6-8.01l2.59,8.03Z"/>
      </g>
      <g>
        <path class="cls-1" d="M14.04,59.35c-.81-.34-1.21-.51-2.03-.84,1.75-1.86,3.27-3.81,4.58-5.86,1.31-2.05,2.2-3.9,2.64-5.56,.45-1.66,.39-2.95-.21-3.86-.45-.68-1.16-.97-2.15-.86-.98,.11-2.09,.58-3.31,1.42-1.45,1-2.88,2.34-4.26,4.02-1.38,1.67-2.6,3.53-3.65,5.54-1.04,2.02-1.87,4.15-2.47,6.37-.65,2.43-.96,4.71-.95,6.81,0,2.11,.31,4.02,.89,5.75,.58,1.72,1.46,3.27,2.64,4.65,2,2.35,4.43,3.48,7.26,3.48,2.83,0,5.67-1.14,8.62-3.39,1.9-1.45,3.54-3.11,4.95-5,1.41-1.89,2.84-4.35,4.35-7.38,.13-.24,.19-.36,.32-.6,.27,.08,.41,.12,.68,.2-1.4,3.28-3,6.17-4.85,8.7s-3.93,4.7-6.32,6.56c-2.15,1.68-4.31,2.87-6.51,3.57-2.2,.7-4.26,.87-6.18,.47-1.92-.4-3.58-1.36-4.96-2.93-1-1.14-1.78-2.56-2.32-4.27C.27,74.62-.01,72.66,0,70.43c.01-2.23,.29-4.6,.84-7.1,.58-2.64,1.49-5.31,2.75-7.97,1.26-2.66,2.76-5.08,4.47-7.23,1.72-2.15,3.46-3.83,5.19-5.03,1.64-1.13,3.15-1.74,4.5-1.84,1.35-.1,2.34,.34,2.96,1.3,.69,1.07,.83,2.56,.44,4.48-.39,1.92-1.23,3.97-2.49,6.17-1.26,2.2-2.8,4.23-4.62,6.14Z"/>
        <path class="cls-1" d="M37.21,67.31c-3.45-11.34-6.45-22.81-9.02-34.38,1.25-1.34,1.88-2,3.15-3.32,1.77,10.6,3.61,21.15,6.11,31.61,.02-.15,.03-.24,0-.27,.02-.62,.03-.93,.05-1.55,.08-2.67,.68-5.3,1.82-7.85,1.07-2.39,2.45-4.05,4.04-4.95,.85-.48,1.64-.68,2.35-.61,.71,.07,1.23,.41,1.55,1.01,.18,.34,.31,.88,.4,1.62,.07,.44,.1,.66,.17,1.1,.17,1.29,.26,1.93,.44,3.22,.07,.4,.1,.61,.18,1.01,.16,1.05,.37,1.81,.62,2.27,.26,.46,.58,.77,.97,.92,.39,.15,.78,.12,1.16-.09,.66-.36,1.42-1.48,2.32-3.35,.26,.02,.39,.03,.65,.05-.07,.16-.1,.24-.16,.4-.71,1.64-1.26,2.78-1.66,3.45-.4,.66-.83,1.12-1.3,1.38-.66,.37-1.35,.44-2.08,.23-.74-.21-1.28-.63-1.65-1.26-.22-.39-.47-1.15-.75-2.29-.55-2.11-.82-3.17-1.34-5.29-.18-.79-.36-1.35-.55-1.69-.17-.3-.42-.47-.76-.49-.33-.02-.71,.09-1.14,.33-.82,.47-1.59,1.33-2.29,2.57-.69,1.24-1.24,2.73-1.63,4.46-.39,1.73-.58,3.44-.58,5.15,0,1.7,.23,3.32,.67,4.84-.72,.7-1.08,1.06-1.79,1.77Z"/>
        <path class="cls-1" d="M54.08,49.05c1.11-2.52,1.69-4.6,1.69-6.27-2.17,.24-3.57-.23-4.21-1.47-.3-.59-.33-1.18-.08-1.78,.25-.59,.71-1.06,1.39-1.4,.7-.35,1.36-.42,2.01-.23,.64,.19,1.12,.62,1.43,1.28,.22,.46,.35,1.04,.37,1.73,.67-.2,1.25-.41,1.76-.66,1.42-.68,2.47-1.5,3.15-2.47,.67-.31,1-.46,1.67-.76-.04,.17-.06,.26-.1,.43-.77,2.75-1.21,5.34-1.35,7.75-.14,2.41,.04,4.08,.49,5.02,.17,.34,.43,.57,.81,.68,.37,.11,.74,.07,1.12-.1,.9-.42,2.03-1.75,3.46-3.98,.29,.07,.43,.1,.72,.17-.41,.75-1.12,1.76-2.09,3.05-.87,1.16-1.8,1.99-2.79,2.47-.85,.41-1.6,.54-2.28,.39-.68-.15-1.18-.55-1.51-1.22-.55-1.12-.62-2.84-.16-5.19,.16-.87,.41-1.9,.77-3.08,.36-1.18,.84-2.61,1.46-4.29,.08-.19,.12-.29,.2-.48-.55,.8-1.13,1.46-1.74,1.98-.61,.52-1.36,.99-2.24,1.42-.41,.2-.86,.37-1.35,.52-.01,1.82-.63,3.99-1.79,6.52-.31-.02-.47-.03-.78-.05Zm1.79-7.98c-.09-.42-.2-.75-.32-1.01-.25-.52-.59-.87-1-1.03-.41-.17-.83-.15-1.24,.06-.23,.12-.4,.29-.5,.51-.1,.23-.1,.45,0,.65,.35,.7,1.37,.96,3.06,.81Z"/>
        <path class="cls-1" d="M73.03,32.15c-.04,3.55-.03,5.32,.01,8.85,.01,1.45,.18,2.55,.49,3.3,.2,.49,.49,.84,.87,1.04,.37,.21,.76,.23,1.16,.06,.69-.28,1.56-1.3,2.65-3.05,.27,.04,.4,.07,.67,.11-.1,.16-.14,.23-.24,.39-.88,1.54-1.53,2.62-1.98,3.22-.45,.61-.93,1.01-1.44,1.23-.69,.28-1.37,.29-2.04,0-.68-.28-1.17-.78-1.48-1.5-.2-.46-.37-1.24-.52-2.35-.51-3.58-.75-5.37-1.2-8.96,1.22-.95,1.83-1.42,3.07-2.36Zm-2.53-9.52c.64-.25,1.2-.33,1.69-.23,.49,.1,.81,.35,.96,.75,.15,.39,.06,.8-.25,1.22-.31,.42-.76,.75-1.34,.98-.56,.22-1.11,.28-1.66,.18-.55-.1-.89-.33-1.04-.68-.15-.37-.07-.77,.24-1.2,.31-.43,.77-.77,1.39-1.01Z"/>
        <path class="cls-1" d="M79.16,43.71c.51-.91,.78-1.36,1.3-2.27,1.61,1.24,3.47,1.46,5.64,.69,1.13-.4,2-.99,2.63-1.78,.63-.79,.84-1.52,.61-2.2-.16-.49-.5-.84-1.01-1.06-.51-.21-1.64-.48-3.4-.78-1.63-.27-2.76-.52-3.4-.78-.63-.25-1.05-.66-1.26-1.22-.27-.73-.2-1.53,.22-2.4,.42-.86,1.11-1.68,2.07-2.46,.96-.77,2.05-1.37,3.28-1.78,1.08-.36,2.04-.48,2.89-.37,.85,.12,1.36,.46,1.53,1.02,.23,.73-.07,1.38-.91,1.95-.38-.7-.99-1.14-1.83-1.33-.84-.19-1.81-.09-2.91,.29-.98,.34-1.75,.85-2.33,1.52-.57,.67-.76,1.28-.57,1.81,.24,.66,1.08,1.08,2.52,1.3,.97,.16,1.45,.24,2.41,.4,2.34,.38,3.68,1.15,4.04,2.25,.27,.82,.18,1.71-.25,2.65-.43,.94-1.15,1.82-2.14,2.64-.99,.82-2.11,1.45-3.36,1.91-1.99,.73-3.9,.73-5.76-.01Z"/>
        <path class="cls-1" d="M99.32,24.63c-.22,3.52-.31,5.28-.46,8.79-.03,.96,.01,1.63,.12,2,.17,.58,.5,.98,.99,1.22,.49,.24,1.06,.27,1.7,.09,.62-.17,1.15-.46,1.61-.85,.45-.39,1.1-1.12,1.97-2.2,.14-.16,.21-.24,.34-.4,.25,.09,.37,.14,.62,.23-1.08,1.52-1.99,2.64-2.77,3.36-.78,.72-1.6,1.21-2.46,1.45-1.1,.31-2.04,.32-2.84,0-.8-.31-1.32-.87-1.57-1.68-.18-.61-.27-1.54-.27-2.79,0-3.35,0-5.03,.05-8.39-1.39,.4-2.08,.61-3.46,1.04,0-.36,0-.53,0-.89,1.39-.42,2.08-.63,3.48-1.04,.07-2.83,.12-4.25,.23-7.09,1.33-.77,2-1.15,3.35-1.9-.27,3.26-.39,4.89-.6,8.15,2.36-.65,3.54-.96,5.91-1.56-.02,.36-.03,.53-.05,.89-2.36,.59-3.54,.91-5.89,1.56Z"/>
        <path class="cls-1" d="M122.85,32.63c-.88,.38-1.32,.57-2.2,.95,.33-4.22,.51-6.34,.94-10.56,.04-.36,.06-.55,.1-.91,.06-.5,.06-.91,0-1.23-.13-.72-.62-1.01-1.48-.85-.81,.15-1.72,.71-2.73,1.66-1,.96-1.99,2.26-2.95,3.9-.63,1.06-1.14,2.06-1.54,3.01-.4,.95-.74,1.93-1.01,2.96-.27,1.03-.49,2.19-.65,3.48-.81,.41-1.21,.61-2.02,1.03,.1-5.74,.2-8.62,.47-14.38,1.31-.73,1.98-1.08,3.31-1.79-.53,3.84-.76,5.75-1.19,9.58,1.01-2.89,2.41-5.37,4.19-7.44,1.78-2.06,3.55-3.25,5.25-3.56,1.85-.34,2.9,.21,3.13,1.61,.08,.48,.04,1.36-.12,2.64-.23,1.56-.34,2.34-.56,3.89,1.78-3.47,3.45-5.97,4.91-7.48,1.46-1.52,3.03-2.39,4.67-2.6,.92-.12,1.66-.03,2.23,.27,.56,.3,.88,.8,.96,1.48,.06,.55-.07,1.53-.4,2.93-.31,1.28-.46,1.92-.75,3.21-.1,.41-.14,.61-.24,1.02-.21,1.07-.27,1.86-.21,2.36,.07,.53,.25,.94,.55,1.23,.3,.29,.65,.41,1.05,.36,.75-.09,1.85-.85,3.34-2.26,.23,.12,.34,.17,.57,.29-.12,.12-.17,.19-.29,.31-1.23,1.26-2.14,2.13-2.74,2.6-.6,.47-1.16,.74-1.7,.81-.73,.09-1.37-.09-1.95-.54-.57-.45-.92-1.07-1.02-1.85-.07-.48-.02-1.29,.14-2.43,.25-2.13,.38-3.2,.65-5.33,.04-.37,.06-.56,.1-.93,.08-.52,.11-.93,.07-1.22-.04-.3-.21-.52-.5-.67-.3-.15-.68-.19-1.15-.12-.54,.08-1.12,.31-1.73,.71-.61,.4-1.24,.97-1.87,1.71-.64,.74-1.34,1.7-2.06,2.87-.99,1.59-1.73,3.08-2.26,4.42-.53,1.34-.97,2.95-1.32,4.84Z"/>
        <path class="cls-1" d="M162.47,14.09c-1.37,3.71-2.03,5.57-3.29,9.3-.34,1.02-.49,1.81-.48,2.38,.01,.5,.18,.94,.5,1.3,.32,.36,.7,.53,1.15,.52,.69-.02,1.81-.64,3.4-1.85,.2,.14,.3,.21,.5,.35-.16,.13-.23,.2-.39,.33-1.26,1.04-2.21,1.77-2.87,2.2s-1.24,.65-1.74,.66c-.75,.02-1.41-.24-1.99-.78-.57-.54-.88-1.18-.91-1.92-.02-.54,.22-1.76,.73-3.68,.1-.39,.15-.58,.26-.97-.85,1.48-1.99,2.91-3.4,4.31-2.37,2.34-4.62,3.6-6.85,3.78-1.34,.11-2.42-.14-3.26-.75-.84-.61-1.32-1.49-1.43-2.64-.15-1.57,.33-3.28,1.48-5.12,1.15-1.84,2.67-3.4,4.57-4.65,1.89-1.25,3.8-1.93,5.67-2.02,1.97-.1,3.46,.34,4.46,1.28,.15-.39,.23-.58,.39-.97,1.4-.43,2.1-.65,3.5-1.06Zm-4.23,3.33c-.31-.63-.83-1.11-1.55-1.44-.72-.33-1.54-.48-2.47-.43-1.1,.05-2.24,.46-3.41,1.21-1.18,.75-2.23,1.77-3.14,3.05-.72,1.01-1.28,2.12-1.71,3.31-.43,1.2-.6,2.17-.54,2.92,.07,.85,.36,1.5,.86,1.95,.5,.45,1.17,.64,2.02,.57,1.09-.08,2.19-.52,3.34-1.31,1.14-.79,2.27-1.88,3.39-3.28,.69-.8,1.23-1.6,1.61-2.39,.39-.79,.81-1.88,1.29-3.27,.12-.36,.18-.54,.31-.89Z"/>
        <path class="cls-1" d="M164.29,27.35c.79-.67,1.19-1.01,2-1.67,1.04,1.75,2.68,2.63,4.95,2.68,1.18,.03,2.2-.22,3.06-.73,.86-.52,1.31-1.13,1.34-1.86,.02-.52-.16-.97-.56-1.36-.39-.38-1.34-1.04-2.87-1.96-1.41-.84-2.36-1.49-2.86-1.96-.49-.47-.74-1-.73-1.61,.01-.79,.36-1.52,1.05-2.18,.69-.66,1.62-1.19,2.78-1.58,1.16-.38,2.38-.55,3.65-.51,1.12,.04,2.06,.28,2.8,.69,.74,.42,1.09,.92,1.06,1.51-.05,.77-.56,1.28-1.53,1.51-.11-.8-.51-1.44-1.22-1.91-.71-.48-1.64-.74-2.79-.77-1.02-.03-1.92,.17-2.69,.6-.77,.43-1.16,.93-1.17,1.5-.01,.71,.61,1.41,1.86,2.13,.84,.5,1.25,.74,2.08,1.25,2.03,1.2,2.99,2.4,2.93,3.58-.04,.87-.44,1.68-1.17,2.41-.74,.74-1.71,1.31-2.91,1.72-1.21,.42-2.46,.61-3.78,.6-2.09-.03-3.85-.72-5.3-2.09Z"/>
        <path class="cls-1" d="M234.46,5.01c1.83-.03,2.75-.04,4.59-.04-.71,1.32-1.35,2.38-1.94,3.18-.54,.75-.81,1.12-1.35,1.87-.19,.27-.29,.41-.48,.69,1.98,1.69,3.63,3.4,4.98,5.11,1.34,1.72,2.41,3.45,3.2,5.19,.8,1.74,1.26,3.37,1.42,4.89,.15,1.51,0,2.91-.42,4.2-.56,1.67-1.51,3.06-2.83,4.18-1.32,1.12-2.95,1.95-4.87,2.51-1.93,.56-4.04,.82-6.37,.8-2.33-.02-4.72-.34-7.19-.96-3.83-.95-7.85-2.45-12.18-4.44-.33-.16-.5-.23-.83-.39-1.86,.37-3.62,.6-5.28,.66-1.66,.07-3.33-.02-5-.26-1.75-.25-3.13-.68-4.15-1.29-1.03-.61-1.5-1.3-1.4-2.07,.07-.6,.44-1.09,1.1-1.46,.66-.37,1.56-.61,2.69-.72,1.13-.11,2.42-.05,3.88,.16,2.05,.31,5.3,1.26,9.65,3.01,.31,.13,.47,.2,.78,.33,1.71-.73,3.47-1.86,5.31-3.39,2.69-2.24,5.7-5.67,9.13-10.25,1.75-2.28,3.19-4.27,4.28-6-1.63-1.4-3.53-2.76-5.71-4.05-2.18-1.29-4.41-2.38-6.65-3.27-2.25-.89-4.3-1.49-6.15-1.8-2.19-.38-4-.33-5.4,.11-1.41,.44-2.18,1.22-2.35,2.3-.1,.68,.13,1.42,.68,2.21,.55,.79,1.37,1.58,2.45,2.39,1.08,.81,2.45,1.61,4.11,2.44-1.06,.44-1.58,.66-2.63,1.11-2.1-1.14-3.69-2.38-4.78-3.75-1.09-1.37-1.55-2.71-1.36-4.03,.16-1.1,.76-2.01,1.81-2.72,1.05-.71,2.45-1.17,4.19-1.38,1.75-.2,3.67-.12,5.77,.26,5.38,.97,11.28,3.62,17.36,8.05,.86-1.11,1.52-2.24,1.97-3.4Zm-25.47,26.25c-4.02-1.68-7.3-2.63-9.77-2.97-1.04-.14-1.87-.13-2.48,.04-.61,.17-.94,.47-1,.91-.06,.47,.35,.93,1.22,1.38,.87,.45,1.98,.77,3.33,.97,2.73,.4,5.61,.28,8.7-.32Zm4.79-.45c.36,.17,.54,.25,.9,.42,2.8,1.23,5.08,2.23,6.9,2.94,1.81,.71,3.57,1.29,5.27,1.74,2.39,.63,4.66,.83,6.85,.59,2.18-.24,4.08-.89,5.68-1.96,1.61-1.07,2.71-2.45,3.26-4.16,1.46-4.45-1.18-10.49-8.81-17.62-.41,.63-1.33,1.84-2.73,3.59-2.22,2.77-4.02,4.85-5.36,6.2-3.97,4.05-7.92,6.8-11.97,8.28Z"/>
        <path class="cls-1" d="M246.67,35.37c2.58-.97,4.49-2.02,5.71-3.2-1.64-1.42-2.24-2.78-1.76-4.12,.23-.64,.64-1.08,1.24-1.31,.6-.24,1.25-.23,1.95,.03,.72,.26,1.23,.7,1.52,1.31,.29,.61,.3,1.26,.04,1.96-.19,.49-.53,.99-1.01,1.5,.6,.35,1.15,.62,1.67,.82,1.46,.56,2.77,.75,3.94,.56,.68,.27,1.02,.41,1.69,.69-.15,.09-.23,.14-.38,.23-2.54,1.39-4.73,2.89-6.59,4.49-1.86,1.6-2.96,2.92-3.34,3.92-.14,.36-.12,.72,.05,1.07,.17,.35,.45,.6,.83,.74,.92,.36,2.66,.24,5.26-.29,.15,.26,.22,.39,.36,.65-.83,.23-2.06,.43-3.66,.63-1.44,.19-2.67,.1-3.7-.29-.87-.33-1.48-.79-1.83-1.39-.35-.6-.4-1.26-.13-1.98,.44-1.19,1.65-2.47,3.68-3.79,.74-.5,1.66-1.04,2.77-1.62,1.1-.58,2.48-1.24,4.13-1.97,.19-.08,.29-.11,.48-.19-.96,.16-1.84,.2-2.63,.12-.79-.08-1.64-.3-2.56-.64-.42-.16-.85-.37-1.29-.62-1.34,1.28-3.33,2.37-5.96,3.32-.2-.24-.29-.36-.49-.6Zm7.02-4.35c.24-.36,.42-.68,.52-.95,.21-.56,.24-1.05,.08-1.46-.16-.42-.45-.71-.88-.87-.24-.09-.48-.09-.71,0-.24,.09-.39,.24-.48,.46-.27,.75,.23,1.68,1.47,2.81Z"/>
        <path class="cls-1" d="M274.22,50.59c.17,.26,.25,.38,.42,.64-1.99,.56-3.75,.82-5.3,.76-1.55-.06-3.06-.43-4.54-1.11-1.77-.81-3-1.86-3.71-3.17-.71-1.31-.78-2.66-.19-4.05,.6-1.41,1.75-2.61,3.46-3.58,1.71-.97,3.61-1.56,5.69-1.74,2.08-.18,3.94,.12,5.55,.89,.94,.45,1.63,1.02,2.05,1.68,.42,.67,.49,1.29,.2,1.87-.59,1.17-2.13,1.86-4.59,2.13-2.46,.27-5.49,.06-9.12-.54-.08,.11-.15,.25-.22,.4-.48,1.07-.44,2.13,.1,3.18s1.45,1.88,2.77,2.49c1.03,.48,2.13,.73,3.3,.74,1.18,.01,2.55-.19,4.13-.6Zm-9.82-6.78c2.76,.33,5.01,.37,6.74,.08,1.17-.2,2.2-.52,3.09-.96,.89-.44,1.47-.94,1.75-1.51,.35-.72,.04-1.32-.95-1.79-1.49-.72-3.39-.64-5.64,.25-2.25,.89-3.9,2.21-4.99,3.93Z"/>
        <path class="cls-1" d="M301.15,53.03c-3.25,2.38-4.85,3.59-8.01,6.05-.86,.68-1.43,1.26-1.73,1.76-.27,.44-.36,.9-.29,1.39,.08,.49,.31,.85,.71,1.1,.6,.38,1.92,.48,3.97,.36,.1,.23,.15,.35,.24,.58-.21,.02-.31,.04-.52,.06-1.66,.17-2.9,.26-3.71,.24-.81-.01-1.43-.15-1.87-.42-.66-.41-1.09-1-1.29-1.79-.2-.79-.11-1.5,.28-2.15,.28-.47,1.17-1.38,2.67-2.72,.3-.27,.46-.41,.76-.68-1.55,.78-3.33,1.35-5.33,1.75-3.34,.65-5.98,.46-8-.63-1.21-.66-2-1.47-2.39-2.46-.38-.99-.31-2.01,.23-3.05,.74-1.42,2.1-2.61,4.1-3.53,2.01-.92,4.18-1.4,6.5-1.4,2.33,0,4.34,.49,6.01,1.47,1.76,1.03,2.81,2.25,3.15,3.61,.35-.24,.52-.36,.87-.61,1.45,.42,2.18,.64,3.63,1.08Zm-5.51,.44c.08-.71-.1-1.42-.54-2.11-.44-.69-1.07-1.28-1.89-1.76-.98-.57-2.19-.87-3.62-.89-1.43-.02-2.91,.26-4.4,.84-1.17,.46-2.28,1.09-3.31,1.87-1.03,.78-1.72,1.51-2.08,2.19-.41,.77-.52,1.48-.34,2.14,.18,.66,.66,1.2,1.42,1.62,.98,.54,2.18,.79,3.6,.76,1.43-.03,3-.33,4.75-.88,1.04-.3,1.95-.67,2.72-1.12,.77-.45,1.74-1.14,2.93-2.06,.3-.23,.46-.35,.76-.59Z"/>
        <path class="cls-1" d="M308.51,76.17c-.91-.42-1.37-.62-2.28-1.03,3.41-2.67,5.14-3.99,8.62-6.6,.3-.22,.45-.33,.76-.55,.42-.3,.73-.58,.93-.84,.45-.6,.32-1.18-.42-1.73-.69-.52-1.76-.83-3.19-.94-1.43-.1-3.11,.04-5.03,.45-1.24,.25-2.36,.56-3.35,.91-.99,.35-1.97,.78-2.94,1.29-.97,.51-1.99,1.15-3.07,1.93-.88-.33-1.32-.5-2.19-.82,4.38-3.91,6.61-5.83,11.14-9.62,1.47,.5,2.21,.75,3.68,1.27-3.26,2.26-4.87,3.41-8.05,5.74,2.88-1.23,5.74-1.89,8.56-1.97,2.81-.07,4.97,.46,6.41,1.56,1.57,1.19,1.9,2.37,1.01,3.52-.3,.39-1,.97-2.08,1.73-1.34,.9-2.01,1.35-3.33,2.26,3.89-1.03,6.96-1.47,9.15-1.39,2.19,.08,3.97,.7,5.31,1.82,.75,.63,1.22,1.27,1.4,1.92,.18,.65,.04,1.24-.42,1.77-.37,.43-1.21,1-2.5,1.71-1.19,.65-1.78,.97-2.96,1.63-.38,.21-.56,.31-.94,.52-.96,.58-1.6,1.07-1.93,1.46-.35,.42-.53,.85-.53,1.28,0,.43,.16,.79,.48,1.07,.61,.52,1.98,.86,4.11,1.05,.08,.26,.12,.39,.19,.65-.18,0-.27,0-.44-.01-1.84-.09-3.15-.2-3.94-.34-.79-.14-1.4-.4-1.83-.77-.59-.5-.92-1.13-.99-1.89-.07-.76,.15-1.45,.66-2.07,.32-.38,.96-.91,1.93-1.57,1.79-1.28,2.69-1.91,4.5-3.18,.31-.22,.46-.34,.77-.56,.45-.29,.77-.56,.97-.79,.2-.24,.25-.52,.15-.85-.1-.33-.34-.66-.73-.98-.45-.37-1.04-.65-1.78-.85-.74-.2-1.62-.29-2.64-.27-1.02,.02-2.24,.14-3.64,.39-1.9,.34-3.55,.79-4.94,1.32-1.39,.52-2.92,1.3-4.59,2.33Z"/>
      </g>
    </g>
  </g>
</svg>