<?xml version="1.0" encoding="UTF-8"?>
<svg id="Livello_2" data-name="Livello 2" xmlns="http://www.w3.org/2000/svg" viewBox="0 0 560 560">
  <defs>
    <style>
      .cls-1 {
        fill: #cd1624;
      }
    </style>
  </defs>
  <g id="Livello_1-2" data-name="Livello 1">
    <g>
      <path class="cls-1" d="M551.25,472.5h-35c-4.83,0-8.75,3.92-8.75,8.75,0,6.96-2.77,13.64-7.69,18.56s-11.6,7.69-18.56,7.69h-87.5v-26.25c30.16-.04,59.07-12.03,80.4-33.36s33.32-50.24,33.35-80.39v-35h17.5c9.38,0,18.04-5,22.73-13.12,4.69-8.12,4.69-18.13,0-26.25-4.69-8.12-13.35-13.12-22.73-13.12h-71.87c-12.82-55.8-38.76-107.75-75.66-151.52h4.91c5.78-.02,11.31-2.33,15.39-6.42,4.08-4.09,6.38-9.62,6.4-15.4v-13.04c-.02-5.78-2.31-11.32-6.39-15.4-4.08-4.09-9.62-6.4-15.39-6.42h-25.45c-1.84-10.59-.57-21.5,3.64-31.4,4.21-9.89,11.2-18.36,20.12-24.38,3.21-2.14,4.64-6.13,3.52-9.82-1.12-3.69-4.52-6.21-8.38-6.21-20.68,.37-41.1,4.6-60.22,12.47-11.52,5.17-24.7,5.17-36.22,0C260.27,4.6,239.84,.37,219.17,0c-3.86,0-7.26,2.52-8.38,6.21-1.12,3.69,.31,7.68,3.52,9.82,8.91,6.02,15.9,14.48,20.11,24.38,4.21,9.89,5.48,20.8,3.64,31.39h-25.45c-5.78,.02-11.31,2.33-15.39,6.42-4.08,4.09-6.38,9.62-6.39,15.4v13.04c.02,5.77,2.32,11.31,6.4,15.4,4.08,4.09,9.61,6.39,15.39,6.42h5.07c-22.6,26.46-41.07,56.19-54.77,88.18-6.87-4.32-14.81-6.63-22.93-6.66H26.25c-9.38,0-18.04,5-22.73,13.12-4.69,8.12-4.69,18.13,0,26.25,4.69,8.12,13.36,13.12,22.73,13.12h17.5v87.5c.05,33.27,12.73,65.27,35.46,89.55,22.74,24.28,53.84,39.02,87.04,41.25v26.7H35c-9.38,0-18.04,5-22.73,13.12-4.69,8.12-4.69,18.13,0,26.25,4.69,8.12,13.36,13.12,22.73,13.12H481.25c20.88-.02,40.9-8.33,55.66-23.09,14.76-14.77,23.07-34.78,23.09-55.66,0-2.32-.92-4.55-2.56-6.19s-3.87-2.56-6.19-2.56h0Zm-175,35h-26.25v-26.25h26.25v26.25Zm-148.75,0v-26.25h105v26.25h-105ZM243.07,19.88c10.03,1.65,19.82,4.52,29.14,8.55,16.09,7.22,34.48,7.22,50.57,0,9.33-4.02,19.12-6.88,29.14-8.53-10.27,15.24-14.76,33.65-12.69,51.9h-18.43c.86-3.95,3.29-7.39,6.72-9.53,4.21-2.22,5.87-7.39,3.75-11.65-2.12-4.26-7.26-6.04-11.56-4.01-9.24,5.32-15.5,14.62-16.96,25.18h-10.5c-1.45-10.56-7.7-19.85-16.92-25.18-2.08-1.1-4.52-1.31-6.76-.59-2.24,.72-4.1,2.32-5.15,4.42-1.05,2.11-1.21,4.55-.44,6.78,.77,2.22,2.41,4.04,4.54,5.05,3.43,2.14,5.86,5.57,6.72,9.53h-18.46c2.07-18.27-2.43-36.67-12.7-51.92h0Zm5.25,91.1h-35.7c-2.37-.02-4.29-1.94-4.29-4.31h0v-13.04c0-2.38,1.93-4.3,4.3-4.3h169.73c2.38,0,4.3,1.93,4.3,4.3v13.04c0,2.38-1.93,4.31-4.3,4.31H248.32m-50.9,76.14c14-24.32,29.7-45.04,44.81-58.65h31.96s0,0,0,0c-.86,3.96-3.29,7.39-6.73,9.53-4.32,2.16-6.08,7.42-3.91,11.75,2.16,4.33,7.42,6.08,11.75,3.92,9.23-5.33,15.49-14.63,16.95-25.19h10.5c1.45,10.56,7.7,19.85,16.91,25.19,4.32,2.18,9.59,.43,11.77-3.89,2.17-4.32,.43-9.59-3.89-11.77-3.44-2.13-5.87-5.57-6.73-9.53h32.02c34.38,31.04,70.94,98.67,82.51,151.74h0c-8.87,.53-17.21,4.42-23.31,10.88-6.1,6.46-9.51,15.01-9.54,23.9v52.5c0,2.32-.92,4.55-2.56,6.19s-3.87,2.56-6.19,2.56H227.5c-11.6-.02-22.72-4.63-30.92-12.83-8.2-8.2-12.81-19.32-12.83-30.92v-78.75c0-8.62-2.55-17.04-7.35-24.2,6.25-14.83,13.39-29.16,21.02-42.42M17.5,236.24c0-4.83,3.92-8.75,8.75-8.75h113.75c6.96,0,13.64,2.77,18.56,7.69s7.69,11.6,7.69,18.56v78.75c.02,16.24,6.48,31.8,17.96,43.29,11.48,11.48,27.05,17.94,43.29,17.96h166.25c6.96,0,13.64-2.77,18.56-7.69s7.69-11.6,7.69-18.56v-52.5c0-4.64,1.84-9.09,5.12-12.38s7.73-5.12,12.38-5.12h87.5c4.83,0,8.75,3.92,8.75,8.75s-3.92,8.75-8.75,8.75h-78.75c-4.83,0-8.75,3.92-8.75,8.75v43.75c-.02,11.6-4.63,22.72-12.83,30.92-8.2,8.2-19.32,12.81-30.92,12.83H227.49c-20.88-.02-40.89-8.33-55.66-23.09-14.76-14.77-23.07-34.78-23.09-55.66v-78.75c0-2.32-.92-4.55-2.56-6.19s-3.87-2.56-6.19-2.56H26.24c-4.83,0-8.75-3.92-8.75-8.75h0Zm43.75,113.75v-87.5h70v70c.03,25.52,10.18,49.98,28.22,68.03,18.05,18.04,42.51,28.19,68.03,28.22h166.25c16.24-.02,31.8-6.48,43.29-17.96,11.48-11.48,17.94-27.05,17.96-43.29v-35h35v35c-.03,25.52-10.18,49.98-28.22,68.03-18.05,18.04-42.51,28.19-68.03,28.22H175c-30.16-.04-59.07-12.03-80.39-33.36s-33.32-50.24-33.35-80.39h0Zm122.5,131.25h26.25v26.25h-26.25v-26.25Zm297.5,61.25H35c-4.83,0-8.75-3.92-8.75-8.75s3.92-8.75,8.75-8.75H481.25c10.08-.01,19.85-3.5,27.66-9.88,7.81-6.38,13.18-15.25,15.21-25.12h17.76c-2.12,14.57-9.42,27.9-20.55,37.53-11.13,9.64-25.36,14.95-40.09,14.97Z"/>
      <path d="M249.09,334.24h95.46c5.72,0,10.37-4.65,10.37-10.37v-72.64h1.09c4.48,0,8.13-3.65,8.13-8.13v-16.93c0-4.48-3.65-8.13-8.13-8.13h-21.49c5.05-2.18,8.65-5,10.81-8.45,3.01-4.85,2.97-10.7-.11-16.93-4.41-8.93-11.64-12.86-20.35-11.1-11.42,2.31-22.89,14.13-28.04,27.24-5.15-13.11-16.62-24.92-28.04-27.24-8.71-1.77-15.94,2.18-20.35,11.1-3.08,6.24-3.12,12.08-.11,16.93,2.14,3.45,5.76,6.27,10.81,8.45h-21.49c-4.48,0-8.13,3.65-8.13,8.13v16.93c0,4.48,3.65,8.13,8.13,8.13h1.09v72.64c0,5.72,4.65,10.37,10.37,10.37h-.02Zm-14.06-91.14v-16.93c0-1.44,1.16-2.6,2.6-2.6h40.08v22.13h-40.08c-1.44,0-2.6-1.16-2.6-2.6h0Zm17.99-36.43c-1.97-3.19-1.85-7.08,.37-11.57,2.77-5.61,6.62-8.43,11.46-8.43,.9,0,1.85,.09,2.82,.29,11.62,2.36,23.78,17.17,26.04,31.04-29.48-.44-38.16-7.25-40.71-11.34h.02Zm72.95-19.7c.98-.2,1.92-.29,2.82-.29,4.85,0,8.69,2.82,11.46,8.43,2.21,4.5,2.34,8.38,.37,11.57-2.55,4.11-11.23,10.9-40.71,11.34,2.27-13.87,14.42-28.68,26.04-31.04h.02Zm32.65,39.19v16.93c0,1.44-1.16,2.6-2.6,2.6h-40.08v-22.13h40.08c1.44,0,2.6,1.16,2.6,2.6h0Zm-9.22,97.69c0,2.68-2.18,4.83-4.83,4.83h-33.66v-77.45s38.51,0,38.51,0v72.64l-.02-.02Zm-105.14,0v-72.62s38.51,0,38.51,0v77.47h-33.68c-2.68,0-4.83-2.18-4.83-4.83v-.02Zm39-100.29h27.13v22.13h-27.13v-22.13Zm5.04,27.67h17.06v77.47h-17.06v-77.47s0,0,0,0Z"/>
    </g>
  </g>
</svg>